<?xml version="1.0" standalone="no"?>
<!DOCTYPE svg PUBLIC "-//W3C//DTD SVG 20010904//EN"
 "http://www.w3.org/TR/2001/REC-SVG-20010904/DTD/svg10.dtd">
<svg version="1.0" xmlns="http://www.w3.org/2000/svg"
 width="612.000000pt" height="612.000000pt" viewBox="0 0 612.000000 612.000000"
 preserveAspectRatio="xMidYMid meet">
<metadata>
Created by potrace 1.16, written by Peter Selinger 2001-2019
</metadata>
<g transform="translate(0.000000,612.000000) scale(0.100000,-0.100000)"
fill="#000000" stroke="none">
<path d="M5075 5116 c-107 -34 -315 -147 -540 -294 -144 -94 -343 -238 -391
-284 -30 -28 -33 -29 -60 -15 -100 51 -137 36 -385 -149 -195 -145 -215 -157
-357 -218 -179 -77 -210 -92 -239 -118 -20 -19 -35 -20 -250 -19 -125 0 -464
7 -752 15 l-524 16 -78 -66 c-44 -35 -79 -62 -79 -59 0 3 35 47 77 98 88 106
133 173 133 199 0 26 -19 22 -76 -13 -144 -92 -421 -368 -543 -543 -59 -85
-52 -105 23 -70 l34 17 88 -50 c49 -28 287 -159 529 -292 242 -133 457 -256
477 -275 l37 -32 -107 -106 -107 -106 -273 -90 c-151 -50 -275 -92 -277 -94
-1 -2 -21 -61 -43 -131 -27 -87 -36 -130 -28 -132 10 -4 320 -55 332 -55 5 0
-19 -46 -67 -126 l-19 -32 54 -30 54 -31 -20 -41 c-27 -54 -30 -162 -5 -206
21 -41 70 -90 111 -111 44 -25 152 -22 206 5 l41 20 31 -54 30 -55 47 28 c25
14 60 35 78 45 l32 19 6 -33 c3 -18 15 -97 28 -175 l22 -141 134 41 134 42 89
275 90 275 104 105 105 105 41 -45 c22 -25 91 -137 153 -250 61 -113 189 -345
283 -517 95 -172 172 -318 172 -325 0 -7 -7 -22 -15 -32 -19 -25 -19 -56 -2
-56 41 0 272 195 437 368 106 110 210 248 210 278 0 40 -82 -6 -225 -128 -44
-37 -84 -68 -88 -68 -4 0 22 36 58 79 l65 79 -15 529 c-8 290 -15 627 -15 748
0 200 1 222 18 245 27 37 51 86 121 247 51 120 76 163 159 275 54 74 110 141
124 150 65 43 88 168 44 245 l-24 42 57 63 c214 235 575 825 606 991 8 42 0
45 -70 23z"/>
</g>
</svg>
